<?xml version="1.0" encoding="UTF-8" standalone="no"?>
<!DOCTYPE svg PUBLIC "-//W3C//DTD SVG 1.1//EN" "http://www.w3.org/Graphics/SVG/1.1/DTD/svg11.dtd">
<svg width="100%" height="100%" viewBox="0 0 1754 822" version="1.1" xmlns="http://www.w3.org/2000/svg" xmlns:xlink="http://www.w3.org/1999/xlink" xml:space="preserve" xmlns:serif="http://www.serif.com/" style="fill-rule:evenodd;clip-rule:evenodd;stroke-linejoin:round;stroke-miterlimit:2;">
    <g transform="matrix(1,0,0,1,-75.75481,-141.303772)">
        <path d="M647.4,564.7C647.4,564.7 516.6,421.2 477.2,378.5C469.6,370.2 465.8,364.7 454.7,348.3C451.2,343.1 446.8,336.7 441.4,328.8C423.8,303.1 395.6,261.9 370.8,225.5C357.8,206.5 345.4,188.3 335.2,173.2C329,164.1 310.2,136.6 275,142C230.4,148.8 158.2,162.5 119.2,172.9C109,175.6 90.6,183 81.2,201.8C73.2,217.9 74,238.1 83.7,261.8C88.5,273.6 95,289.7 101.8,306.9C112.3,333.1 124.1,362.8 131.9,381.3C134.4,387.3 139,406.6 140.5,413.6L140.6,413.9C143.1,423.2 145.5,432.6 147.5,440.2C148.4,443.8 149.2,446.9 149.9,449.6C153.4,462.7 163.4,464.6 172.1,466.3C174.7,466.8 177.4,467.3 180.4,468.1C187.6,470 192.4,476.6 194.6,487.8C195.7,495.7 225.7,706.1 235.5,755.6C236.3,759.6 243.8,795.7 267.6,838.6C292.2,883.1 323.6,915.9 360.8,936C401.2,957.8 453.8,963.1 510.9,963.1C529.9,963.1 549.4,962.5 569.1,961.8L569.7,961.8C569.7,961.8 710.1,959.3 724.1,959.3C728.6,959.3 1417.3,957.2 1543.2,955.1C1614,954 1678.1,925.7 1717.6,903.3C1787.2,863.8 1831.1,790.6 1829.1,717.2C1825,545.5 1671.5,492.8 1581.5,488.7C1479.9,484.1 1299.1,480.5 1202.4,479.3C1169.9,478.9 1125.8,477.7 1079,476.5C990,474.1 889.1,471.5 828.1,472.8C698.5,475.5 616.7,548.3 593.1,619.1C560.2,717.7 592.6,792.6 625.6,838C691,928.2 826.4,928.2 899.1,928.2C1091.069,928.2 1247.936,927.495 1363.565,926.166C1427.552,925.431 1478.91,924.504 1516.6,923.4C1569.2,921.8 1612.7,908.6 1642.5,885.2C1666.9,866.1 1681.8,840.3 1684.5,812.6C1685.8,799.6 1682.5,788.6 1674.9,780.1C1661,764.6 1636.1,760.3 1624.9,760.2C1554.5,759.5 1467.3,759 1375,758.6C1260.1,758.1 1141.3,757.5 1050.5,756.2C1033.1,755.9 990,755.1 965.2,753.4C963.9,753.3 962.6,753.3 961.2,753.2C949.2,752.7 931.1,752 917,731.1C901.9,708.8 874.4,702.5 839.6,713.5C826.3,717.7 813,716.6 791.8,697.8C738.1,650.2 647.4,564.7 647.4,564.7Z" style="fill:white;fill-rule:nonzero;"/>
    </g>
</svg>
