<?xml version="1.0" encoding="UTF-8" standalone="no"?>
<!DOCTYPE svg PUBLIC "-//W3C//DTD SVG 1.1//EN" "http://www.w3.org/Graphics/SVG/1.1/DTD/svg11.dtd">
<svg width="100%" height="100%" viewBox="0 0 185 185" version="1.1" xmlns="http://www.w3.org/2000/svg" xmlns:xlink="http://www.w3.org/1999/xlink" xml:space="preserve" xmlns:serif="http://www.serif.com/" style="fill-rule:evenodd;clip-rule:evenodd;stroke-linejoin:round;stroke-miterlimit:2;">
    <g transform="matrix(1,0,0,1,-12.330048,-61.800775)">
        <path d="M80.55,235.283C79.412,235.178 79.194,235.088 79.492,234.843C79.929,234.484 94.852,227.286 96.8,226.494C98.114,225.96 98.361,225.957 134.572,226.111C168.514,226.254 175.302,226.41 170.342,226.931C169.475,227.021 167.695,227.211 166.385,227.353C165.075,227.495 159.539,228.029 154.082,228.541C141.485,229.721 129.775,230.861 94.418,234.351C84.037,235.375 82.592,235.471 80.55,235.283M112.145,219.218C112.475,218.908 115.855,217.423 125.375,213.406L132.783,210.28L144.293,210.344C168.377,210.477 188.073,210.779 186.626,210.992C185.826,211.11 180.944,211.752 175.778,212.417C170.612,213.083 163.762,213.969 160.555,214.387C157.349,214.803 149.133,215.69 142.299,216.357C135.464,217.024 126.658,217.917 122.729,218.343C112.536,219.446 111.843,219.503 112.145,219.218M106.145,153.252C105.743,153.017 104.797,150.767 101.71,142.692C101.129,141.172 100.718,139.862 100.799,139.782C100.88,139.702 104.342,139.636 108.495,139.636L116.045,139.636L118.525,146.383C119.888,150.094 121.005,153.219 121.006,153.329C121.01,153.629 106.665,153.555 106.146,153.252M119.249,139.042C116.757,138.972 116.269,138.887 116.111,138.504C115.281,136.477 111.791,126.146 111.9,126.037C112.153,125.784 123.507,125.686 124.432,125.929C125.34,126.167 125.344,126.177 127.684,132.446C128.974,135.9 129.956,138.841 129.869,138.983C129.719,139.226 126.366,139.245 119.249,139.043" style="fill:rgb(248,152,6);fill-rule:nonzero;"/>
    </g>
    <g transform="matrix(1,0,0,1,-12.330048,-61.800775)">
        <path d="M139.098,239.02C134.593,239.022 130.088,239.046 125.584,239.05C115.256,239.135 104.925,239.124 94.601,239.439C91.598,239.692 88.561,239.927 85.638,240.695C85.011,240.801 84.096,241.443 84.68,242.109C85.825,243.064 87.32,243.483 88.685,244.036C93.913,245.909 99.529,246.279 105.039,246.3C111.696,246.176 118.303,245.234 124.911,244.494C134.358,243.324 143.81,242.187 153.221,240.771C153.919,240.794 154.424,240.196 154.381,239.515C154.036,239.031 153.188,239.192 152.611,239.131C148.108,239.041 143.603,239.019 139.098,239.021" style="fill:rgb(0,151,220);fill-rule:nonzero;"/>
    </g>
    <g transform="matrix(1,0,0,1,-12.330048,-61.800775)">
        <path d="M55.868,234.772C54.133,234.218 52.336,233.23 50.63,231.895C48.88,230.525 47.455,229.132 47.455,228.793C47.455,228.047 57.033,222.998 66.813,218.591C86.953,209.514 91.401,207.886 137.943,192.568C156.224,186.55 160.297,184.9 165.507,181.398C171.067,177.658 175.634,172.332 179.614,164.939C180.342,163.588 180.974,162.665 181.021,162.889C181.236,163.938 178.102,173.938 175.999,178.914C173.822,184.064 171.149,188.201 168.854,189.972C166.666,191.66 162.196,193.507 146.938,199.029C114.623,210.725 92.471,220.107 74.442,229.734C67.082,233.664 66.522,233.919 63.692,234.637C60.642,235.411 58.007,235.457 55.868,234.772M38.207,219.91C36.514,218.217 32.809,211.114 31.738,207.509C30.788,204.311 31.406,201.255 33.225,200.15C33.703,199.86 36.832,198.608 40.179,197.369C54.222,192.167 92.167,177.101 105.266,171.525C109.089,169.903 112.926,168.314 116.776,166.757C133.282,160.128 139.996,155.115 144.172,146.297C145.991,142.458 146.528,139.893 146.509,135.14C146.489,130.352 146.018,128.276 144.037,124.259C141.829,119.779 137.852,116.121 133.557,114.619C129.681,113.264 124.672,112.958 118.539,113.702C116.769,113.917 112.284,114.398 108.574,114.772C103.41,115.306 98.25,115.88 93.095,116.492C79.268,118.139 70.275,118.661 49.704,119.007C44.32,119.097 38.01,119.273 35.684,119.397C33.357,119.521 31.4,119.57 31.335,119.505C31.136,119.306 32.794,113.604 34.102,109.988C41.767,88.795 60.069,72.308 83.702,65.306C101.974,59.892 123.049,60.79 140.324,67.72C154.7,73.486 166.388,83.215 174.732,96.36C176.981,99.904 180.331,106.432 179.9,106.432C179.846,106.432 179.229,105.51 178.528,104.382C169.148,89.27 153.838,77.482 137.378,72.698C125.723,69.311 113.277,69.035 101.926,71.912C89.296,75.114 76.505,82.879 68.378,92.277C64.186,97.125 60.948,102.142 60.948,103.791C60.948,104.213 61.233,104.881 61.588,105.293C62.136,105.93 62.408,106.03 63.506,105.997C65.374,105.941 75.321,103.859 88.598,100.747C109.011,95.962 112.087,95.464 121.274,95.467C130.112,95.469 135.914,96.394 142.044,98.779C153.604,103.276 161.947,113.368 164.667,126.144C165.389,129.535 165.667,136.786 165.212,140.396C163.802,151.595 158.23,161.082 148.922,168.128C145.204,170.943 140.342,173.515 129.74,178.274C125.302,180.267 116.491,184.309 110.161,187.257C103.862,190.191 97.556,193.108 91.243,196.009C87.169,197.874 77.763,202.447 70.341,206.169C46.486,218.136 41.071,220.735 40.001,220.734C39.267,220.733 38.827,220.531 38.207,219.91M22.9,191.164C22.19,189.598 22.342,184.912 23.324,178.001C25.574,162.174 28.587,140.025 29.689,131.214C29.831,130.074 30.023,129.065 30.115,128.974C30.687,128.401 72.733,128.29 81.971,128.836C84.882,129.008 85.212,129.394 82.481,129.431C78.188,129.491 54.621,131.681 46.397,132.785C38.237,133.88 36.751,134.403 36.099,136.404C35.519,138.184 29.462,175.269 29.462,177.038C29.462,178.086 30.052,179.284 30.842,179.838C31.704,180.441 34.43,180.361 39.384,179.588C52.624,177.52 67.904,173.953 84.315,169.098C87.781,168.073 90.671,167.287 90.736,167.352C90.883,167.499 77.276,172.842 66.768,176.765C52.981,181.912 24.248,192.156 23.601,192.156C23.463,192.156 23.147,191.71 22.901,191.164" style="fill:rgb(250,39,19);fill-rule:nonzero;"/>
    </g>
</svg>
