<?xml version="1.0" encoding="UTF-8" standalone="no"?>
<!DOCTYPE svg PUBLIC "-//W3C//DTD SVG 1.1//EN" "http://www.w3.org/Graphics/SVG/1.1/DTD/svg11.dtd">
<svg width="100%" height="100%" viewBox="0 0 1597 790" version="1.1" xmlns="http://www.w3.org/2000/svg" xmlns:xlink="http://www.w3.org/1999/xlink" xml:space="preserve" xmlns:serif="http://www.serif.com/" style="fill-rule:evenodd;clip-rule:evenodd;stroke-linejoin:round;stroke-miterlimit:2;">
    <g transform="matrix(1,0,0,1,-89.634949,-156.282083)">
        <path d="M601.7,526.4C549.8,477.3 505.1,432.2 465,388.7C456.6,379.6 452.4,373.4 441.1,356.7C437.6,351.6 433.3,345.1 427.9,337.3C406.1,305.6 369.4,251.7 339.9,208.4L321.7,181.6C312.6,168.2 299.1,153.3 276.2,156.8C237.6,162.7 162.6,176.6 122,187.4C114.2,189.4 100.3,194.9 93.5,208.5C87.5,220.6 88.5,236.6 96.4,256.1C100.6,266.5 106.1,280.3 111.9,295C123.2,323.4 136,355.6 144.5,375.3C147.8,383 153.2,404.6 153.9,407.4C156.3,416.4 158.7,425.6 160.6,433C161.6,436.8 162.5,440.2 163.2,443C164.1,446.5 164.6,447.1 173.7,448.8C176.4,449.3 179.5,449.9 183,450.8C190.1,452.7 195.9,456.8 200.3,462.9C203.8,462.8 207,465.2 207.8,468.8C215.5,503.9 223.9,564.3 232,622.7C239,673.3 245.7,721.2 251.5,750.7C258,783.8 291.9,879 369.2,920.9C419.4,948 493.6,947.7 565.4,945L580.8,943.6C602.3,937.8 644,921.2 664.2,913.2L669.1,911.2C679.1,907.3 686.6,907.3 692,911.2C699.4,916.6 698.8,926.5 698.5,931.3C698.4,931.6 698.4,932 698.4,932.3C698.3,935.1 699.2,936.4 700,937.3C705.3,942.9 721.7,942.9 727.2,942.9L790.8,941.8C1001.6,940.5 1339.6,938.3 1383.8,937.9C1421,937.5 1450.3,932.3 1476.1,927.7C1491.5,924.9 1504.8,922.6 1517.6,921.6C1571.6,917.5 1614.1,904 1643.9,881.3C1668.7,862.4 1683.2,838.1 1685.9,810.8C1687.2,797.8 1683.9,786.8 1676.3,778.3C1662.4,762.8 1637.5,758.5 1626.3,758.4C1555.9,757.7 1468.7,757.2 1376.4,756.8C1261.5,756.3 1142.7,755.7 1051.9,754.4C1038.5,754.2 992.6,753.4 966.6,751.6C965.3,751.5 964,751.5 962.6,751.4C950.6,750.9 932.5,750.2 918.4,729.3C903.3,707 875.8,700.7 841,711.7C827.7,716 814.4,714.9 793.2,696.1C751,658.9 650.2,571 601.7,526.4Z" style="fill:white;fill-rule:nonzero;"/>
    </g>
</svg>
