<?xml version="1.0" encoding="UTF-8" standalone="no"?>
<!DOCTYPE svg PUBLIC "-//W3C//DTD SVG 1.1//EN" "http://www.w3.org/Graphics/SVG/1.1/DTD/svg11.dtd">
<svg width="100%" height="100%" viewBox="0 0 1745 455" version="1.1" xmlns="http://www.w3.org/2000/svg" xmlns:xlink="http://www.w3.org/1999/xlink" xml:space="preserve" xmlns:serif="http://www.serif.com/" style="fill-rule:evenodd;clip-rule:evenodd;stroke-linejoin:round;stroke-miterlimit:2;">
    <g transform="matrix(1,0,0,1,-84.370081,-272.42973)">
        <path d="M808.868,572.7C808.968,573.1 849.3,642.1 850.8,645.1C853.1,649.6 859.9,652.7 872.6,647.7C886.2,642.3 904.7,633.9 922.7,625.8C937.6,619.1 951.7,612.7 962.2,608.4C967.1,606.4 971.7,599.7 975.9,588.6C980.4,576.7 987.1,560 994.2,542.3C1002.9,520.5 1011.9,497.9 1017.3,483.2C1029.3,450 1070.1,372.1 1186.7,366.6C1204.2,365.7 1227.1,365.8 1247.9,374C1274.9,384.6 1290.9,405.8 1295.4,437C1297.2,449.2 1295.9,472.6 1295.2,485.1L1295.2,485.3C1294.3,500.9 1293.1,522.3 1316.3,542.6C1326.2,551.2 1342.3,560 1379.9,551.3C1383.4,550.4 1387.5,549.2 1391.9,547.9C1417.9,540.1 1457.2,528.4 1488,569.2C1492.2,574.8 1497.6,583 1503.3,591.6C1510.7,602.8 1518.4,614.4 1523.9,621.1C1534.5,634 1554.1,646.2 1587,631.2C1608.1,621.6 1631.8,614.6 1668.9,644.3C1672.2,647 1676.1,650.1 1680.3,653.5C1705.8,673.9 1744.2,704.8 1765.5,720.3C1771.5,724.6 1784.6,728 1797.2,725.7C1804.3,724.4 1814.1,720.8 1820.6,710.7C1824.5,704.7 1827.8,698.3 1828.9,680.5C1829.3,674 1828.6,660.1 1828,652.6L1827.9,651.8C1826.6,636.3 1824.9,615.2 1803.9,602C1790.3,593.5 1774.1,583.3 1757,572.5C1708.9,542.1 1649.1,504.2 1610.3,481.5C1576.4,461.6 1525,431.1 1475.3,401.5C1435.1,377.6 1397.2,355.1 1370.5,339.3C1366.1,336.8 1327.6,314.1 1309.2,303.5C1280.7,287 1237.5,262.1 1178.8,277C1164.6,280.6 1147.7,287.3 1130.5,310.2C1130.3,310.4 1130.1,310.7 1129.9,311C1127.1,314.8 1121.4,322.7 1112.5,321.8C1103.1,320.8 1098.4,310.4 1096.8,307C1096.1,305.3 1095.6,305.1 1095.5,305.1C1095.4,305 1093.3,304.5 1087.6,308C1077,314.6 1061.1,332 1050.8,345.3C1041.6,357.2 1029.4,381.2 1019.5,400.4C1015.6,408 1011.9,415.2 1008.9,420.7L1003.6,430.3C992.5,450.6 975.7,481.2 966.3,497.3C951.9,522.1 933.3,546 889.8,582C879.2,590.8 863.2,603.9 831.1,604.2C782.7,604.5 534.7,606.2 407.3,600.9C384.7,600 362,597.6 339.7,594C319.2,590.5 276.9,581.8 258.4,577C227.6,569.1 162.8,550.3 137.7,536.3C126.7,530.2 90.3,507.6 84.8,473.8C82.6,460.3 88.9,444.7 102.4,429.9C113.4,417.8 138,397.2 178.2,394.3C191.3,393.3 211.1,396.9 231.1,419.3C247.2,437.3 284.9,479.6 304.8,498.9C327.8,521.3 357.8,545.1 406.2,552.8C409.4,553.4 412.8,553.9 416.2,554.5C446.3,559.5 483.8,565.8 536.5,552.6C553.9,548.2 567.5,543.1 572.9,539C578.7,534.5 584.5,528.9 587.4,518.6C587.5,518.2 587.6,517.8 587.7,517.4C589,512.6 591.2,504.5 599,500.1C605.1,496.7 612.7,496.5 622.5,499.3C627.7,500.8 631.7,500.9 635.6,496.5C646.5,484.1 659.3,457.1 662.8,438.7C665.5,424.4 670.6,401.3 675,380.8C677.6,368.8 680,357.5 681.8,349.1C682,348.4 682.1,347.5 682.3,346.6C683.6,339.5 685.7,327.7 694.9,321.6C700.2,318 706.8,317 714.5,318.7C731.7,322.5 734.4,337.2 733.4,361.4C733.1,369 731.8,381.2 730.7,392C730.1,397.8 729.5,403.3 729.2,407.3C728.1,420.3 728.5,436.1 739.2,454.1C754.4,479.7 808.868,572.7 808.868,572.7Z" style="fill:none;fill-rule:nonzero;"/>
    </g>
</svg>
