<?xml version="1.0" encoding="UTF-8" standalone="no"?>
<!DOCTYPE svg PUBLIC "-//W3C//DTD SVG 1.1//EN" "http://www.w3.org/Graphics/SVG/1.1/DTD/svg11.dtd">
<svg width="100%" height="100%" viewBox="0 0 1062 563" version="1.1" xmlns="http://www.w3.org/2000/svg" xmlns:xlink="http://www.w3.org/1999/xlink" xml:space="preserve" xmlns:serif="http://www.serif.com/" style="fill-rule:evenodd;clip-rule:evenodd;stroke-linejoin:round;stroke-miterlimit:2;">
    <g transform="matrix(1,0,0,1,-455.936043,-271.353627)">
        <path d="M1210.78,831.56C1144.89,831.56 1085.23,832.35 1032.59,833.04C988.04,833.63 947.4,834.17 909.74,834.17C828.47,834.17 761.08,831.67 698.11,821.77C581.22,803.39 522.36,739.36 493.56,688.88C476.81,659.288 465.446,626.955 460,593.39C455,563.65 454.63,533.94 458.8,507.44C464.716,469.292 479.039,432.933 500.73,401C519.97,372.62 544.73,347.65 574.49,326.78C610.438,301.51 652.318,283.55 691.635,275.728C708.469,272.38 724.833,270.889 740.06,271.48C756.79,272.13 775.15,272.82 794.74,273.55C940.91,278.99 1161.8,287.21 1287.59,304.55C1350.82,313.27 1397.59,342.47 1425.59,365.43C1460.53,394.01 1486.97,429.64 1498.14,463.19C1519.6,527.69 1522.8,586.81 1507.66,638.9C1493.66,686.9 1467.05,721.26 1445.37,745.9C1413.91,781.58 1365.37,806.82 1301.08,820.9C1271.396,827.415 1241.144,830.998 1210.76,831.6" style="fill:white;fill-rule:nonzero;"/>
    </g>
</svg>
