<?xml version="1.0" encoding="UTF-8" standalone="no"?>
<!DOCTYPE svg PUBLIC "-//W3C//DTD SVG 1.1//EN" "http://www.w3.org/Graphics/SVG/1.1/DTD/svg11.dtd">
<svg width="100%" height="100%" viewBox="0 0 1595 792" version="1.1" xmlns="http://www.w3.org/2000/svg" xmlns:xlink="http://www.w3.org/1999/xlink" xml:space="preserve" xmlns:serif="http://www.serif.com/" style="fill-rule:evenodd;clip-rule:evenodd;stroke-linejoin:round;stroke-miterlimit:2;">
    <g transform="matrix(1,0,0,1,-89.534949,-155.482083)">
        <path d="M650.3,571.4C598.4,522.3 505,431.5 464.9,387.9C456.5,378.9 452.3,372.7 441.1,356.1C437.6,350.9 433.2,344.4 427.8,336.5C405.7,304.3 368.5,249.8 338.7,206L321.5,180.8C312.4,167.4 298.9,152.5 276,156C237.5,161.9 162.5,175.8 121.8,186.6C114.1,188.6 100.2,194.1 93.4,207.7C87.4,219.7 88.4,235.8 96.3,255.3C100.3,264.9 104.8,277.6 109.7,291C120.6,320.9 132.9,354.8 144,373.6C148.2,380.2 152.9,386.3 158.2,392C166,399.5 173.5,407.5 180.3,415.9C198.4,438.2 202.6,457.4 205.3,470C212.9,505.3 221.4,566 229.6,624.7C236.6,675.1 243.2,722.6 249,752C255.5,785.1 289.3,880.3 366.7,922.1C421.8,951.9 505.3,948.5 579,945.6C598.6,944.8 617.1,944.1 634.2,944C706.9,943.7 1323.6,939.7 1381.4,939.2C1418.6,938.9 1447.9,933.7 1473.7,929.1C1489.1,926.3 1502.4,924 1515.2,923C1569.1,918.9 1611.6,905.4 1641.4,882.7C1666.2,863.8 1680.7,839.5 1683.4,812.2C1684.7,799.2 1681.5,788.2 1673.8,779.7C1659.9,764.2 1635,759.9 1623.8,759.8C1553.3,759.1 1466.2,758.6 1373.9,758.2C1259,757.7 1140.1,757.1 1049.3,755.8C1035.9,755.6 990,754.8 964,753C962.7,752.9 961.3,752.9 959.9,752.8C947.9,752.3 929.9,751.5 915.8,730.7C900.7,708.4 873.2,702.1 838.4,713.1C825.1,717.3 811.8,716.2 790.6,697.4C745.3,657.3 696.9,614.3 650.3,571.4Z" style="fill:white;fill-rule:nonzero;"/>
    </g>
</svg>
