<?xml version="1.0" encoding="UTF-8" standalone="no"?>
<!DOCTYPE svg PUBLIC "-//W3C//DTD SVG 1.1//EN" "http://www.w3.org/Graphics/SVG/1.1/DTD/svg11.dtd">
<svg width="100%" height="100%" viewBox="0 0 1795 696" version="1.1" xmlns="http://www.w3.org/2000/svg" xmlns:xlink="http://www.w3.org/1999/xlink" xml:space="preserve" xmlns:serif="http://www.serif.com/" style="fill-rule:evenodd;clip-rule:evenodd;stroke-linejoin:round;stroke-miterlimit:2;">
    <g transform="matrix(1,0,0,1,-46.99954,-161.251111)">
        <path d="M1565.05,519.13L1746.11,556.95C1757.688,559.545 1769.054,563.012 1780.11,567.32C1801.99,576.19 1824.62,585.47 1834.67,617.19C1854.69,672.75 1823.24,696.52 1819.41,699.19C1814.35,702.86 1658.46,815.82 1646.66,824.35C1609.06,853.93 1570.77,856.84 1557.19,856.84C1554.92,856.84 1553.34,856.71 1552.57,856.71L663,854.38L220.22,853.21L220.09,853.21C212.86,853.01 149.35,851.16 132.71,847.57C123.81,846.09 104.6,839.52 87,827.16C63.92,811 50.36,789.82 47.74,766.03C44.38,735.53 53.09,710.49 61.09,694.87C66.454,684.348 73.74,674.923 82.57,667.08L261.43,507.27C264.7,503.77 287.34,480.19 322.1,461.72C361.84,440.58 391.87,440.85 427,443.39L427.14,443.39C440.87,444.62 456.94,441.6 474.94,434.39C494.865,426.332 513.136,414.674 528.84,400C574.08,358.13 725.62,218.65 776.37,182.82C802.02,164.72 828.96,157.98 856.44,162.72C878.68,166.59 895.71,177.08 904.86,182.72C906.39,183.67 907.71,184.48 908.71,185.04L909.2,185.32L909.66,185.66C957.94,220.73 1000.5,262.12 1021.5,283.66C1045.54,308.27 1073.33,339.56 1080.65,354.97C1112.5,397.54 1112.02,470.65 1111.84,498.3L1111.84,506.64C1111.84,537.76 1127.62,562.66 1158.62,580.76C1174.01,589.537 1190.684,595.844 1208.03,599.45L1208.3,599.5C1210.24,599.89 1402.22,638.86 1425.58,642.6C1451.48,646.18 1477.88,638.23 1490.58,634.4C1492.58,633.82 1494.23,633.32 1495.58,632.95C1529.27,622.81 1556.13,605.86 1573.13,583.95C1585.93,567.46 1588.93,553.75 1588.93,553.62L1588.93,553.45C1600.29,501.17 1619.41,413.35 1620.5,409.35L1620.5,409.48C1621.56,405.31 1630.66,357.18 1633.99,330.02C1636.84,306.83 1628.63,289.97 1627.77,288.28C1609.96,258.94 1580.88,211.57 1575.77,204.33C1537.2,168.7 1496.04,194.54 1492.94,196.54L1257.61,369.11C1240.02,382.06 1238.02,399.11 1238.02,410.81L1238.02,411.57C1236.76,428.12 1242.44,440.99 1254.9,449.81C1260.892,453.977 1267.632,456.948 1274.75,458.56L1275.05,458.62L1565.05,519.13Z" style="fill:white;fill-rule:nonzero;"/>
    </g>
</svg>
