<?xml version="1.0" encoding="UTF-8" standalone="no"?>
<!DOCTYPE svg PUBLIC "-//W3C//DTD SVG 1.1//EN" "http://www.w3.org/Graphics/SVG/1.1/DTD/svg11.dtd">
<svg width="100%" height="100%" viewBox="0 0 1745 454" version="1.1" xmlns="http://www.w3.org/2000/svg" xmlns:xlink="http://www.w3.org/1999/xlink" xml:space="preserve" xmlns:serif="http://www.serif.com/" style="fill-rule:evenodd;clip-rule:evenodd;stroke-linejoin:round;stroke-miterlimit:2;">
    <g transform="matrix(1,0,0,1,-84.465355,-272.449365)">
        <path d="M800.1,556.7C800.3,557.1 849.3,641.9 850.8,645C853,649.5 859.8,652.5 872.5,647.5C886,642.2 904.4,633.9 922.3,625.8C937.4,619 951.5,612.6 962.1,608.3C967,606.3 971.6,599.6 975.8,588.5C980.3,576.5 987.1,559.5 994.3,541.5C1003,519.9 1011.9,497.6 1017.2,483.1C1029.3,449.9 1070,372 1186.6,366.5C1204.2,365.6 1227,365.7 1247.8,373.9C1274.8,384.5 1290.8,405.7 1295.3,436.9C1297.1,449 1295.8,472.2 1295.1,484.6L1295.1,485.2C1294.2,500.8 1293,522.2 1316.2,542.5C1326,551.1 1342.2,559.9 1379.8,551.2C1383.3,550.3 1387.4,549.1 1391.8,547.8C1417.8,540 1457.1,528.3 1487.9,569.1C1492.1,574.7 1497.6,582.9 1503.3,591.6C1510.7,602.8 1518.3,614.3 1523.8,621C1534.4,633.9 1554,646.1 1586.9,631.1C1608,621.5 1631.7,614.5 1668.8,644.2C1672.2,646.8 1676,649.9 1680.1,653.2C1705.6,673.6 1744.1,704.6 1765.4,720.1C1771.4,724.4 1784.5,727.8 1797.1,725.5C1804.2,724.2 1814,720.6 1820.5,710.5C1824.5,704.3 1827.7,698.2 1828.8,680.3C1829.2,673.9 1828.5,660 1827.9,652.4L1827.8,651.5C1826.5,636.1 1824.8,614.9 1803.8,601.8C1789.7,593 1772.8,582.4 1755,571.1C1705.1,539.5 1648.5,503.8 1610.2,481.3C1576.1,461.4 1524.5,430.6 1474.5,400.9C1434.6,377.2 1396.9,354.8 1370.4,339.1C1355,330.1 1324.3,312.1 1309.1,303.3C1281,287 1238.4,262.4 1178.6,276.8C1163.5,280.5 1146.4,284.6 1128.4,310.9C1127.2,313 1117.9,328.6 1114.5,334C1106.4,346.9 1093.3,349.8 1078.6,342C1076.1,340.7 1070.3,338.6 1066.9,337.3C1066.1,337 1065.3,336.7 1064.7,336.5C1060.8,335 1057.3,333.7 1051.4,344.4C1049,348.8 1045.9,354.2 1042.6,360.2C1031.8,379.5 1017,406 1008.9,420.8C1006.8,424.5 1004.4,428.9 1001.8,433.7C990.6,454.2 975.2,482.2 966.3,497.5C951.9,522.3 933.3,546.2 889.8,582.2C876.5,593.3 860.9,604.2 831.1,604.4C782.7,604.7 534.7,606.4 407.3,601.1C384.7,600.2 362,597.8 339.7,594.2C319.2,590.7 276.9,582 258.4,577.2C227.6,569.3 162.8,550.5 137.7,536.5C126.7,530.4 90.3,507.8 84.9,474C82.7,460.5 88.9,445 102.4,430C113.4,418 137.9,397.3 178.1,394.4C191.3,393.5 211.1,397 231.1,419.4C247.2,437.4 284.9,479.7 304.8,499C327.8,521.4 357.8,545.2 406.2,552.9L408.2,553.2C441.3,558.5 478.7,564.4 536.9,552.6C566.9,546.5 608.3,532.3 635.1,499.4C648.9,482.6 658.2,462.2 662.9,438.7C665.5,425.8 669.8,405.9 673.9,386.6C677,372.3 679.9,358.9 681.9,349.2C682.1,348.4 682.2,347.5 682.4,346.6C683.7,339.5 685.8,327.7 695,321.6C700.3,318.1 706.9,317.1 714.6,318.8C731.8,322.7 734.5,337.4 733.5,361.4C733.2,369.3 731.8,382.1 730.7,393.3C730.1,398.6 729.6,403.7 729.3,407.4C728.3,420.4 728.6,436.2 739.3,454.2C754.5,479.8 800.1,556.7 800.1,556.7" style="fill:white;fill-rule:nonzero;"/>
    </g>
</svg>
